<?xml version="1.0" encoding="UTF-8" standalone="no"?>
<!-- Uploaded to: SVG Repo, www.svgrepo.com, Generator: SVG Repo Mixer Tools -->

<svg
   width="800px"
   height="800px"
   viewBox="0 0 24 24"
   fill="none"
   version="1.1"
   id="svg2"
   sodipodi:docname="cup-star.svg"
   inkscape:version="1.4.3 (0d15f75042, 2025-12-25)"
   xmlns:inkscape="http://www.inkscape.org/namespaces/inkscape"
   xmlns:sodipodi="http://sodipodi.sourceforge.net/DTD/sodipodi-0.dtd"
   xmlns="http://www.w3.org/2000/svg"
   xmlns:svg="http://www.w3.org/2000/svg">
  <defs
     id="defs2" />
  <sodipodi:namedview
     id="namedview2"
     pagecolor="#ffffff"
     bordercolor="#000000"
     borderopacity="0.25"
     inkscape:showpageshadow="2"
     inkscape:pageopacity="0.0"
     inkscape:pagecheckerboard="0"
     inkscape:deskcolor="#d1d1d1"
     inkscape:zoom="1.0253048"
     inkscape:cx="550.08033"
     inkscape:cy="414.51088"
     inkscape:window-width="2560"
     inkscape:window-height="1371"
     inkscape:window-x="0"
     inkscape:window-y="0"
     inkscape:window-maximized="1"
     inkscape:current-layer="svg2" />
  <g
     id="g1">
    <path
       fill-rule="evenodd"
       clip-rule="evenodd"
       d="M 11.0135,4.79963 C 11.1857,4.57481 11.4983,4.25 12,4.25 c 0.5017,0 0.8143,0.32481 0.9865,0.54963 0.1643,0.21458 0.3298,0.51161 0.4995,0.81614 l 0.1215,0.21792 c 0.0228,0.0409 0.0407,0.07308 0.0564,0.10061 0.0273,0.00641 0.0591,0.01362 0.0988,0.0226 l 0.2379,0.0538 c 0.3278,0.07408 0.6536,0.14769 0.9036,0.24625 0.2762,0.10882 0.6505,0.32075 0.7947,0.78466 0.1418,0.45573 -0.0371,0.84175 -0.1933,1.08985 -0.1445,0.22962 -0.3642,0.4864 -0.5891,0.74929 l -0.1607,0.18786 c -0.0345,0.04033 -0.0605,0.07074 -0.0823,0.09705 0.0029,0.03634 0.007,0.07867 0.0125,0.13527 l 0.0242,0.24946 c 0.0342,0.35193 0.0672,0.69201 0.0551,0.96411 -0.0127,0.2852 -0.0812,0.717 -0.4684,1.0109 -0.3994,0.3032 -0.8405,0.2372 -1.1202,0.157 -0.2577,-0.0738 -0.5623,-0.2142 -0.869,-0.3555 L 12.0849,11.2243 C 12.0514,11.2089 12.024,11.1963 12,11.1854 c -0.024,0.0109 -0.0514,0.0235 -0.0849,0.0389 l -0.2228,0.1026 c -0.3067,0.1413 -0.6113,0.2817 -0.869,0.3555 -0.2797,0.0802 -0.7208,0.1462 -1.12024,-0.157 C 9.31589,11.2315 9.24743,10.7997 9.23473,10.5145 9.22261,10.2424 9.25563,9.90234 9.28981,9.55042 L 9.31399,9.30093 C 9.31948,9.24433 9.32356,9.202 9.32655,9.16566 9.30465,9.13935 9.27866,9.10894 9.24418,9.06861 L 9.08351,8.88075 C 8.8586,8.61786 8.63891,8.36108 8.49436,8.13146 8.33817,7.88336 8.15934,7.49734 8.30106,7.04161 8.44532,6.5777 8.81962,6.36577 9.09576,6.25695 9.34585,6.1584 9.67163,6.08478 9.99944,6.0107 L 10.2373,5.95691 C 10.277,5.94792 10.3088,5.94071 10.3361,5.9343 10.3518,5.90677 10.3697,5.87459 10.3925,5.83369 L 10.514,5.61576 C 10.6837,5.31124 10.8492,5.01421 11.0135,4.79963 Z M 12,6.03448 C 11.9419,6.13513 11.8772,6.25103 11.801,6.38769 L 11.7027,6.56405 11.6804,6.60466 C 11.6019,6.74827 11.4718,6.9861 11.255,7.15071 11.0336,7.31876 10.7673,7.37659 10.6116,7.4104 l -0.0433,0.00952 -0.1909,0.0432 c -0.1752,0.03963 -0.3179,0.07197 -0.4399,0.10263 0.0794,0.0977 0.1824,0.21899 0.3165,0.37579 l 0.1302,0.15218 0.0299,0.03469 c 0.108,0.12432 0.2822,0.32505 0.3628,0.5842 0.0797,0.25608 0.0522,0.51982 0.0349,0.68621 L 10.807,9.4456 10.7873,9.64866 c -0.0182,0.18826 -0.0324,0.33852 -0.0418,0.46074 0.1042,-0.0459 0.2227,-0.1005 0.3635,-0.16531 L 11.2878,9.8618 11.3281,9.8429 C 11.4716,9.77522 11.7213,9.65746 12,9.65746 c 0.2787,0 0.5284,0.11775 0.6719,0.18543 l 0.0403,0.01891 0.1788,0.0823 c 0.1408,0.0648 0.2593,0.1194 0.3635,0.1653 C 13.2451,9.98718 13.2309,9.83692 13.2127,9.64866 L 13.193,9.4456 13.1882,9.39882 C 13.1709,9.23243 13.1434,8.96869 13.2231,8.71261 13.3037,8.45346 13.4779,8.25273 13.5859,8.12841 L 13.6158,8.09372 13.746,7.94153 C 13.8801,7.78474 13.9831,7.66345 14.0625,7.56575 13.9405,7.53509 13.7978,7.50275 13.6226,7.46312 L 13.4317,7.41992 13.3884,7.4104 C 13.2327,7.37659 12.9664,7.31877 12.745,7.15071 12.5282,6.9861 12.3981,6.74827 12.3196,6.60466 L 12.2973,6.56405 12.199,6.38769 C 12.1228,6.25103 12.0581,6.13513 12,6.03448 Z m -1.2607,4.47702 c 0,10e-5 -2e-4,-9e-4 -6e-4,-0.0031 z m 2.5214,0 6e-4,-0.0031 c -4e-4,0.0022 -6e-4,0.0032 -6e-4,0.0031 z"
       id="path1"
       style="fill:currentColor"
       fill="#1C274C" />
    <path
       fill-rule="evenodd"
       clip-rule="evenodd"
       d="M 7.4984,1.60719 C 8.66129,1.41099 10.1724,1.25 12.0002,1.25 c 1.8277,0 3.3388,0.16099 4.5017,0.35719 l 0.1349,0.02264 c 1.0102,0.1691 1.8498,0.30966 2.5064,1.11825 0.4211,0.5186 0.5569,1.07905 0.5882,1.70514 l 0.4917,0.1639 c 0.4631,0.15435 0.869,0.28963 1.1911,0.43944 0.3481,0.16196 0.6672,0.37058 0.9111,0.70899 0.2439,0.33841 0.3409,0.70707 0.3845,1.08856 0.0402,0.3529 0.0402,0.78077 0.0402,1.26895 v 0.14522 c 0,0.40179 0,0.75671 -0.0297,1.05351 -0.0321,0.32169 -0.1033,0.63442 -0.2812,0.93661 -0.1778,0.3023 -0.4166,0.5164 -0.6822,0.7007 -0.2451,0.1701 -0.5553,0.3424 -0.9066,0.5375 l -2.6406,1.4671 c -0.5394,1.0613 -1.2805,2.0076 -2.2996,2.6911 -0.8747,0.5866 -1.922,0.958 -3.1601,1.0639 V 18.75 h 1.4302 c 0.8342,0 1.5524,0.5888 1.716,1.4068 L 16.1149,21.25 H 18 c 0.4142,0 0.75,0.3358 0.75,0.75 0,0.4142 -0.3358,0.75 -0.75,0.75 H 6 C 5.58579,22.75 5.25,22.4142 5.25,22 5.25,21.5858 5.58579,21.25 6,21.25 H 7.88515 L 8.10379,20.1568 C 8.26739,19.3388 8.98562,18.75 9.81981,18.75 H 11.25 V 16.7187 C 10.012,16.6127 8.9648,16.2414 8.09017,15.6548 7.07115,14.9713 6.33018,14.0252 5.79078,12.964 L 3.14962,11.4966 C 2.79836,11.3015 2.48813,11.1292 2.24307,10.9591 1.97748,10.7748 1.73867,10.5607 1.56083,10.2584 1.38299,9.95621 1.3118,9.64348 1.27965,9.32179 1.24999,9.02497 1.25,8.67008 1.25001,8.26827 L 1.25,8.12304 C 1.24996,7.63488 1.24992,7.20701 1.2902,6.85411 1.33375,6.47262 1.43076,6.10396 1.67466,5.76555 1.91857,5.42714 2.23762,5.21852 2.58577,5.05656 2.90781,4.90675 3.31373,4.77147 3.77686,4.61712 L 4.26891,4.4531 C 4.30023,3.82706 4.43608,3.26664 4.85712,2.74808 5.51366,1.93949 6.35333,1.79893 7.36355,1.62983 Z M 9.41486,21.25 H 14.5852 L 14.4253,20.451 C 14.402,20.3341 14.2994,20.25 14.1802,20.25 H 9.81981 c -0.11917,0 -0.22177,0.0841 -0.24514,0.201 z M 4.3021,6.02318 4.28849,6.02772 C 3.77708,6.19819 3.45362,6.3072 3.21847,6.4166 3.0008,6.51786 2.93077,6.58817 2.89154,6.6426 2.85231,6.69703 2.80775,6.7857 2.78053,7.02422 2.75111,7.28191 2.74999,7.62323 2.75001,8.16231 v 0.07253 c 1e-5,0.44518 8.8e-4,0.72441 0.0222,0.93779 0.01966,0.19671 0.05207,0.27523 0.08142,0.32511 0.02935,0.04988 0.08225,0.11633 0.24466,0.22905 0.17618,0.12227 0.41985,0.25863 0.809,0.47481 l 1.06569,0.5921 C 4.5454,9.22376 4.37367,7.54348 4.3021,6.02318 Z m 14.7253,4.77032 c 0.4275,-1.56986 0.5992,-3.25001 0.6708,-4.7702 l 0.0133,0.00442 c 0.5114,0.17047 0.8348,0.27948 1.07,0.38888 0.2177,0.10126 0.2877,0.17157 0.3269,0.226 0.0393,0.05443 0.0838,0.1431 0.111,0.38162 0.0294,0.25769 0.0306,0.59901 0.0306,1.13809 v 0.07253 c -10e-5,0.44518 -9e-4,0.72441 -0.0223,0.93779 -0.0196,0.19671 -0.052,0.27523 -0.0814,0.32511 -0.0293,0.04988 -0.0822,0.11633 -0.2446,0.22905 -0.1762,0.12227 -0.4199,0.25863 -0.809,0.47481 z M 12.0002,2.75 C 10.2608,2.75 8.83319,2.90319 7.74796,3.08629 6.54104,3.28992 6.28751,3.3661 6.02161,3.69358 5.75956,4.01632 5.73468,4.32156 5.78848,5.67672 5.87815,7.93537 6.1761,10.3727 7.09884,12.2264 c 0.45548,0.915 1.05099,1.6623 1.82685,2.1826 0.77087,0.5171 1.76541,0.841 3.07451,0.841 1.309,0 2.3035,-0.3239 3.0744,-0.841 0.7759,-0.5203 1.3714,-1.2676 1.8269,-2.1826 0.9227,-1.8537 1.2207,-4.29103 1.3103,-6.54968 C 18.2656,4.32156 18.2407,4.01632 17.9787,3.69358 17.7128,3.3661 17.4593,3.28992 16.2524,3.08629 15.1671,2.90319 13.7395,2.75 12.0002,2.75 Z"
       id="path2"
       style="fill:currentColor"
       fill="#1C274C" />
  </g>
</svg>
